# xmcd
#
# Track frame offsets: 
#        150
#        19239
#        31848
#        52622
#        65041
#        78389
#        94730
#        110403
#        125485
#        139545
#        152866
#        168617
#        190997
#
# Disc length: 2665 seconds
#
# Revision: 0
# Processed by: cddbd v1.5.2PL0 Copyright (c) Steve Scherf et al.
# Submitted via: ExactAudioCopy v1.0b1
#
DISCID=a80a670d
DTITLE=Hats and Chairs - The Soaked Lamb
DYEAR=2009
DGENRE=Blues
TTITLE0=Blue Voodoo
TTITLE1=Hello, Bang Bang, Goodbye
TTITLE2=Singing Black Coffee
TTITLE3=Smilin’ Moon (A Lullabye For Mia)
TTITLE4=Buried Twice
TTITLE5=Grain By Grain
TTITLE6=East Of Hell
TTITLE7=This Is Not A Blues Song
TTITLE8=B Minor Blues
TTITLE9=She’s The Only Thing
TTITLE10=The Curse
TTITLE11=Almost A Song
TTITLE12=Slowly Movin’
EXTD=
EXTT0=
EXTT1=
EXTT2=
EXTT3=
EXTT4=
EXTT5=
EXTT6=
EXTT7=
EXTT8=
EXTT9=
EXTT10=
EXTT11=
EXTT12=
PLAYORDER=
